<svg xmlns="http://www.w3.org/2000/svg" font-family="Segoe UI, Arial, sans-serif" font-size="13" viewBox="0 0 920 380"><defs><marker id="arrow" markerHeight="6" markerWidth="8" orient="auto" refX="8" refY="3"><path fill="#555" d="M0,0 L8,3 L0,6 Z"/></marker><linearGradient id="appGrad" x1="0" x2="0" y1="0" y2="1"><stop offset="0%" stop-color="#e3f2fd"/><stop offset="100%" stop-color="#bbdefb"/></linearGradient><linearGradient id="archGrad" x1="0" x2="0" y1="0" y2="1"><stop offset="0%" stop-color="#fce4ec"/><stop offset="100%" stop-color="#f8bbd0"/></linearGradient><linearGradient id="trGrad" x1="0" x2="0" y1="0" y2="1"><stop offset="0%" stop-color="#e8f5e9"/><stop offset="100%" stop-color="#c8e6c9"/></linearGradient><linearGradient id="isaGrad" x1="0" x2="0" y1="0" y2="1"><stop offset="0%" stop-color="#fff3e0"/><stop offset="100%" stop-color="#ffe0b2"/></linearGradient><linearGradient id="engGrad" x1="0" x2="0" y1="0" y2="1"><stop offset="0%" stop-color="#ede7f6"/><stop offset="100%" stop-color="#d1c4e9"/></linearGradient><linearGradient id="resGrad" x1="0" x2="0" y1="0" y2="1"><stop offset="0%" stop-color="#f3e5f5"/><stop offset="100%" stop-color="#e1bee7"/></linearGradient></defs><rect width="160" height="100" x="20" y="40" fill="url(#appGrad)" stroke="#1565c0" stroke-width="1.5" rx="10"/><text x="100" y="82" fill="#1565c0" font-size="14" font-weight="bold" text-anchor="middle">Application</text><text x="100" y="104" fill="#666" font-size="10" font-style="italic" text-anchor="middle">→ generates traces</text><rect width="160" height="100" x="20" y="260" fill="url(#archGrad)" stroke="#c62828" stroke-width="1.5" rx="10"/><text x="100" y="302" fill="#c62828" font-size="14" font-weight="bold" text-anchor="middle">Architecture</text><text x="100" y="324" fill="#666" font-size="10" font-style="italic" text-anchor="middle">→ provides physical ISA</text><line x1="180" x2="230" y1="90" y2="90" stroke="#555" stroke-width="1.5" marker-end="url(#arrow)"/><rect width="190" height="100" x="235" y="40" fill="url(#trGrad)" stroke="#2e7d32" stroke-width="1.5" rx="10"/><text x="330" y="82" fill="#2e7d32" font-size="14" font-weight="bold" text-anchor="middle">Trace Transforms</text><text x="330" y="104" fill="#666" font-size="10" font-style="italic" text-anchor="middle">→ multiple trace variants</text><line x1="180" x2="230" y1="310" y2="310" stroke="#555" stroke-width="1.5" marker-end="url(#arrow)"/><rect width="190" height="100" x="235" y="260" fill="url(#isaGrad)" stroke="#e65100" stroke-width="1.5" rx="10"/><text x="330" y="302" fill="#e65100" font-size="14" font-weight="bold" text-anchor="middle">ISA Transforms</text><text x="330" y="324" fill="#666" font-size="10" font-style="italic" text-anchor="middle">→ multiple ISA variants</text><line x1="425" x2="495" y1="90" y2="170" stroke="#555" stroke-width="1.5" marker-end="url(#arrow)"/><line x1="425" x2="495" y1="310" y2="230" stroke="#555" stroke-width="1.5" marker-end="url(#arrow)"/><rect width="210" height="120" x="500" y="140" fill="url(#engGrad)" stroke="#4527a0" stroke-width="2" rx="12"/><text x="605" y="172" fill="#4527a0" font-size="14" font-weight="bold" text-anchor="middle">Design Space</text><text x="605" y="190" fill="#4527a0" font-size="14" font-weight="bold" text-anchor="middle">Exploration</text><text x="605" y="215" fill="#333" font-size="11" text-anchor="middle">Evaluate all trace × ISA</text><text x="605" y="231" fill="#333" font-size="11" text-anchor="middle">combinations, filter by</text><text x="605" y="247" fill="#333" font-size="11" text-anchor="middle">error budget</text><line x1="710" x2="745" y1="200" y2="200" stroke="#555" stroke-width="1.5" marker-end="url(#arrow)"/><rect width="150" height="170" x="750" y="120" fill="url(#resGrad)" stroke="#6a1b9a" stroke-width="1.5" rx="10"/><text x="825" y="148" fill="#6a1b9a" font-size="14" font-weight="bold" text-anchor="middle">Pareto Frontier</text><line x1="772" x2="772" y1="253" y2="160" stroke="#666" stroke-width="1"/><line x1="772" x2="878" y1="253" y2="253" stroke="#666" stroke-width="1"/><text x="825" y="265" fill="#666" font-size="9" text-anchor="middle">Runtime →</text><text x="762" y="210" fill="#666" font-size="9" text-anchor="middle" transform="rotate(-90,762,210)">Qubits →</text><circle cx="815" cy="182" r="4" fill="#bbb" opacity=".6"/><circle cx="828" cy="192" r="4" fill="#bbb" opacity=".6"/><circle cx="848" cy="210" r="4" fill="#bbb" opacity=".6"/><circle cx="858" cy="225" r="4" fill="#bbb" opacity=".6"/><circle cx="870" cy="236" r="4" fill="#bbb" opacity=".6"/><circle cx="790" cy="175" r="5" fill="#6a1b9a"/><circle cx="810" cy="205" r="5" fill="#6a1b9a"/><circle cx="840" cy="232" r="5" fill="#6a1b9a"/><circle cx="865" cy="245" r="5" fill="#6a1b9a"/><polyline fill="none" stroke="#6a1b9a" stroke-dasharray="4 3" stroke-width="1.5" points="790 175 810 205 840 232 865 245"/><circle cx="770" cy="275" r="3.5" fill="#6a1b9a"/><text x="778" y="278" fill="#333" font-size="9">Pareto-optimal</text><circle cx="845" cy="275" r="3.5" fill="#bbb" opacity=".6"/><text x="853" y="278" fill="#333" font-size="9">Dominated</text></svg>